<svg width="30" height="31" viewBox="0 0 30 31" fill="none" xmlns="http://www.w3.org/2000/svg">
<circle cx="14.6108" cy="15.5" r="14.6108" fill="url(#paint0_linear_12658_7602)"/>
<path d="M23.5398 10.7235C22.8757 11.0148 22.1681 11.2079 21.4304 11.3017C22.1893 10.8485 22.7686 10.1365 23.0409 9.27819C22.3333 9.70008 21.552 9.99808 20.7194 10.1644C20.0475 9.44895 19.0899 9.00586 18.0452 9.00586C16.0184 9.00586 14.3866 10.651 14.3866 12.6678C14.3866 12.958 14.4112 13.237 14.4715 13.5026C11.4278 13.3542 8.73468 11.8955 6.92547 9.67329C6.60961 10.2213 6.42434 10.8485 6.42434 11.5238C6.42434 12.7917 7.07726 13.9156 8.05051 14.5663C7.46232 14.5551 6.88529 14.3844 6.39644 14.1154C6.39644 14.1265 6.39644 14.1411 6.39644 14.1556C6.39644 15.9346 7.66545 17.4124 9.32956 17.7528C9.03156 17.8342 8.70678 17.8733 8.36971 17.8733C8.13533 17.8733 7.89872 17.8599 7.67661 17.8108C8.15096 19.2606 9.49698 20.3265 11.0975 20.3611C9.8519 21.3355 8.27038 21.9225 6.55827 21.9225C6.25804 21.9225 5.97008 21.9091 5.68213 21.8723C7.30383 22.9181 9.22577 23.5152 11.2984 23.5152C18.0352 23.5152 21.7183 17.9347 21.7183 13.0975C21.7183 12.9357 21.7128 12.7794 21.705 12.6243C22.4315 12.1086 23.042 11.4646 23.5398 10.7235Z" fill="white"/>
<defs>
<linearGradient id="paint0_linear_12658_7602" x1="-4.9085" y1="-4.01934" x2="40.5122" y2="41.4013" gradientUnits="userSpaceOnUse">
<stop stop-color="#FF0A6C"/>
<stop offset="1" stop-color="#2D27FF"/>
</linearGradient>
</defs>
</svg>
