<svg width="30" height="31" viewBox="0 0 30 31" fill="none" xmlns="http://www.w3.org/2000/svg">
<circle cx="14.8701" cy="15.5" r="14.6108" fill="url(#paint0_linear_12658_7607)"/>
<g clip-path="url(#clip0_12658_7607)">
<path d="M12.6556 18.1305L12.3793 22.0156C12.7745 22.0156 12.9457 21.8458 13.1509 21.642L15.0037 19.8713L18.8429 22.6828C19.547 23.0752 20.0431 22.8686 20.233 22.0351L22.7531 10.2267L22.7537 10.226C22.9771 9.18518 22.3773 8.77816 21.6913 9.0335L6.87871 14.7046C5.86778 15.097 5.88309 15.6606 6.70686 15.9159L10.4939 17.0938L19.2903 11.5897C19.7043 11.3156 20.0807 11.4673 19.771 11.7414L12.6556 18.1305Z" fill="white"/>
</g>
<defs>
<linearGradient id="paint0_linear_12658_7607" x1="-4.64922" y1="-4.01934" x2="40.7715" y2="41.4013" gradientUnits="userSpaceOnUse">
<stop stop-color="#FF0A6C"/>
<stop offset="1" stop-color="#2D27FF"/>
</linearGradient>
<clipPath id="clip0_12658_7607">
<rect width="16.6981" height="16.6981" fill="white" transform="translate(6.10364 7.56836)"/>
</clipPath>
</defs>
</svg>
