<svg width="29" height="29" viewBox="0 0 29 29" fill="none" xmlns="http://www.w3.org/2000/svg">
<path d="M14.4999 0C22.5085 0 29 6.49237 29 14.5C29 22.5077 22.5085 29 14.4999 29C6.49138 29 0 22.5076 0 14.5C0 6.49247 6.49147 0 14.4999 0Z" fill="url(#paint0_linear_12658_7665)"/>
<path d="M14.1501 11.7822C14.6087 11.7822 14.9676 11.6363 15.2304 11.4288C15.4914 11.2204 15.6219 10.9367 15.6219 10.5724V8.3738C15.6219 8.05028 15.4888 7.78289 15.2232 7.57723C14.9558 7.37146 14.6141 7.26913 14.1954 7.26913C13.7378 7.26913 13.3717 7.36609 13.1007 7.5609C12.8289 7.75661 12.6929 8.01762 12.6929 8.34842V10.5542C12.6929 10.9166 12.8252 11.203 13.0898 11.4179C13.3544 11.6327 13.7089 11.7822 14.1501 11.7822ZM13.6708 8.45543C13.6708 8.37201 13.7143 8.30502 13.8004 8.25156C13.8874 8.1999 13.9998 8.17451 14.1376 8.17451C14.288 8.17451 14.4095 8.1999 14.501 8.25156C14.5935 8.30502 14.6388 8.37211 14.6388 8.45543V10.5452C14.6388 10.6486 14.5935 10.7301 14.5028 10.789C14.4123 10.8471 14.2908 10.8769 14.1376 10.8769C13.9881 10.8769 13.8721 10.8488 13.7914 10.7899C13.7116 10.7328 13.6708 10.6512 13.6708 10.5452V8.45543ZM17.1843 11.7795C17.3456 11.7795 17.5097 11.687 17.6801 11.5947C17.8523 11.5004 18.0163 11.3626 18.174 11.1832V11.6717H19.0304V7.26276H18.174V10.6095C18.0943 10.7047 18.0055 10.7835 17.9103 10.8461C17.8134 10.9077 17.7336 10.9394 17.6711 10.9394C17.5905 10.9394 17.5316 10.9167 17.4971 10.8688C17.4609 10.8226 17.441 10.7473 17.441 10.644V7.26365H16.5864V10.9476C16.5864 11.2104 16.638 11.4071 16.7368 11.5376C16.8372 11.6689 16.9858 11.7795 17.1843 11.7795ZM19.6747 13.602H9.32529C7.67957 13.602 6.34644 14.8844 6.34644 16.464V18.8837C6.34644 20.4642 7.67957 21.7466 9.32529 21.7466H19.6746C21.3194 21.7466 22.6535 20.4642 22.6535 18.8837V16.464C22.6536 14.8843 21.3195 13.602 19.6747 13.602ZM10.865 16.058H9.94975V19.8479H9.06437V16.058H8.14904V15.4118H10.8651C10.865 15.4118 10.865 16.058 10.865 16.058ZM13.5965 19.9005H12.6422V19.5072C12.4646 19.6522 12.2824 19.7636 12.0903 19.838C11.9009 19.9159 11.716 19.953 11.5366 19.953C11.3155 19.953 11.1506 19.8996 11.0382 19.7918C10.9276 19.6858 10.8706 19.5263 10.8706 19.3132V16.3209H11.8248V19.0659C11.8248 19.1511 11.8447 19.2109 11.8829 19.2489C11.9246 19.2879 11.9907 19.3051 12.0796 19.3051C12.1484 19.3051 12.239 19.2806 12.3459 19.2298C12.4538 19.18 12.5526 19.1165 12.6423 19.0377V16.3199H13.5966C13.5965 16.3199 13.5965 19.9005 13.5965 19.9005ZM17.2087 19.219C17.2087 19.4537 17.1344 19.6322 16.9867 19.7582C16.8408 19.8841 16.6252 19.9458 16.347 19.9458C16.1612 19.9458 15.9962 19.9222 15.853 19.8742C15.709 19.8262 15.573 19.7519 15.4497 19.6494V19.9032H14.4973V15.4118H15.4497V16.8591C15.5784 16.7595 15.7134 16.6815 15.8539 16.629C15.9979 16.5755 16.143 16.5501 16.2889 16.5501C16.5871 16.5501 16.8145 16.6199 16.9713 16.7604C17.1299 16.9017 17.2087 17.1093 17.2087 17.3802C17.2087 17.3801 17.2087 19.219 17.2087 19.219ZM20.8392 18.2085H19.0811V18.8555C19.0811 19.0359 19.1101 19.1609 19.1708 19.2316C19.2324 19.3014 19.3367 19.3358 19.4826 19.3358C19.6367 19.3358 19.7418 19.306 19.8034 19.247C19.8633 19.1872 19.8959 19.0576 19.8959 18.8546V18.6987H20.8411V18.8745C20.8411 19.2261 20.7278 19.4908 20.494 19.6693C20.2638 19.8469 19.9194 19.9357 19.4618 19.9357C19.0495 19.9357 18.725 19.8414 18.4885 19.653C18.2529 19.4664 18.1332 19.2053 18.1332 18.8754V17.333C18.1332 17.0366 18.2637 16.7919 18.5247 16.6044C18.7849 16.4177 19.1183 16.3243 19.5307 16.3243C19.9512 16.3243 20.2747 16.4113 20.5013 16.5845C20.7269 16.7576 20.8393 17.0076 20.8393 17.3322C20.8392 17.3322 20.8392 18.2085 20.8392 18.2085ZM10.3521 11.7923H11.4333V9.15774L12.6921 5.44214H11.5928L10.9239 7.98149H10.855L10.1536 5.44214H9.06338L10.352 9.2765C10.3521 9.2765 10.3521 11.7923 10.3521 11.7923ZM15.8439 17.0756L15.6436 17.1083L15.4488 17.2089V19.2733C15.525 19.3268 15.6001 19.3676 15.6727 19.3902L15.9002 19.4255C16.0162 19.4255 16.1005 19.4028 16.1548 19.3549C16.2083 19.3087 16.2364 19.2325 16.2364 19.1283V17.4164C16.2364 17.3031 16.2046 17.2188 16.1376 17.1617C16.0687 17.1047 15.9718 17.0756 15.8439 17.0756Z" fill="white"/>
<path d="M19.5334 16.925C19.3866 16.925 19.2824 16.9559 19.2181 17.0193C19.1546 17.08 19.1238 17.1834 19.1238 17.3274V17.6736H19.9367V17.3274C19.9367 17.1834 19.9031 17.0809 19.8397 17.0193C19.7771 16.9559 19.673 16.925 19.5334 16.925Z" fill="white"/>
<defs>
<linearGradient id="paint0_linear_12658_7665" x1="-4.87126" y1="-4.87126" x2="40.2048" y2="40.2048" gradientUnits="userSpaceOnUse">
<stop stop-color="#FF0A6C"/>
<stop offset="1" stop-color="#2D27FF"/>
</linearGradient>
</defs>
</svg>
