<svg width="58" height="57" viewBox="0 0 58 57" fill="none" xmlns="http://www.w3.org/2000/svg">
<path d="M57.4633 32.0624L54.1961 5.11582C54.0357 3.80634 53.3624 2.61397 52.324 1.8003C51.2855 0.986635 49.9667 0.618131 48.6569 0.775639L7.3405 5.7858C6.09198 5.93928 4.94768 6.55922 4.13718 7.52122C3.32668 8.48323 2.90995 9.71615 2.97058 10.9726C2.21936 11.4106 1.59599 12.0377 1.16252 12.7916C0.72906 13.5454 0.500637 14.3997 0.5 15.2692V42.4123C0.501467 43.7316 1.02622 44.9965 1.95912 45.9294C2.89203 46.8623 4.1569 47.3871 5.47623 47.3885H22.5577C22.5824 47.5828 22.6488 47.7694 22.7525 47.9355C22.8561 48.1017 22.9944 48.2435 23.158 48.3511L25.9353 50.1778L27.1079 53.288C27.2095 53.5558 27.393 53.7848 27.6324 53.9423C27.8717 54.0997 28.1546 54.1776 28.4408 54.1648L31.761 54.0105L34.5373 55.8368C34.7767 55.9943 35.0598 56.072 35.3461 56.0587C35.6324 56.0454 35.9071 55.9419 36.1309 55.7628L38.7265 53.6869L42.0465 53.5327C42.3328 53.5194 42.6076 53.4158 42.8314 53.2368C43.0552 53.0578 43.2166 52.8125 43.2924 52.5361L44.1717 49.3306L46.5994 47.3885H47.0956C48.4149 47.3871 49.6798 46.8623 50.6127 45.9294C51.5456 44.9965 52.0704 43.7316 52.0718 42.4123V37.7291L53.1236 37.6014C54.4336 37.4423 55.6268 36.7694 56.4407 35.7307C57.2547 34.692 57.6227 33.3725 57.4638 32.0624H57.4633ZM3.21431 20.2455H49.3575V24.7693H3.21431V20.2455ZM49.3575 17.5312H3.21431V15.2692C3.21499 14.6696 3.45352 14.0946 3.87757 13.6706C4.30161 13.2465 4.87654 13.008 5.47623 13.0073H47.0956C47.6953 13.008 48.2702 13.2465 48.6943 13.6706C49.1183 14.0946 49.3568 14.6696 49.3575 15.2692V17.5312ZM42.1318 47.4867C41.908 47.6657 41.7467 47.911 41.6708 48.1873L40.9357 50.867L38.16 50.996C37.8737 51.0093 37.599 51.1129 37.3752 51.2919L35.2053 53.0277L32.8839 51.5009C32.6625 51.3552 32.4032 51.2776 32.1381 51.2776C32.1171 51.2776 32.0961 51.2776 32.0751 51.279L29.2994 51.408L28.319 48.8079C28.2178 48.5397 28.0344 48.3105 27.795 48.153L25.4735 46.6262L26.2087 43.9465C26.2845 43.6701 26.2709 43.3768 26.1698 43.1086L25.1889 40.5079L27.3587 38.7721C27.5826 38.5929 27.744 38.3474 27.8197 38.0709L28.5548 35.3912L31.3306 35.2623C31.6169 35.249 31.8916 35.1454 32.1155 34.9664L34.2852 33.2305L36.6066 34.7573C36.846 34.9149 37.1292 34.9925 37.4155 34.9792L40.1912 34.8502L41.1716 37.4503C41.2727 37.7185 41.4562 37.9478 41.6956 38.1053L44.017 39.6321L43.2819 42.3118C43.206 42.5881 43.2196 42.8814 43.3207 43.1496L44.3011 45.7497L42.1318 47.4867ZM47.0956 44.6742H46.7966L46.0162 42.6057L46.8955 39.4003C46.9714 39.1239 46.9577 38.8306 46.8566 38.5624C46.7555 38.2943 46.5721 38.065 46.3326 37.9075L43.5559 36.0807L42.3832 32.9706C42.2818 32.7026 42.0983 32.4735 41.8589 32.3161C41.6195 32.1586 41.3365 32.0807 41.0503 32.0936L37.7301 32.2479L34.9534 30.4212C34.7139 30.2636 34.4308 30.1859 34.1445 30.1992C33.8582 30.2125 33.5834 30.3161 33.3596 30.4951L30.7645 32.5717L27.4442 32.726C27.158 32.7393 26.8832 32.8429 26.6594 33.0219C26.4357 33.201 26.2743 33.4463 26.1985 33.7227L25.3192 36.9279L22.7234 39.0043C22.4997 39.1833 22.3383 39.4285 22.2625 39.7048C22.1867 39.981 22.2002 40.2743 22.3012 40.5424L23.474 43.6525L23.1942 44.6742H5.47623C4.87654 44.6735 4.30161 44.435 3.87757 44.011C3.45352 43.5869 3.21499 43.012 3.21431 42.4123V27.4836H49.3575V42.4123C49.3568 43.012 49.1183 43.5869 48.6943 44.011C48.2702 44.435 47.6953 44.6735 47.0956 44.6742ZM54.3039 34.0564C53.7979 34.7696 52.8888 34.9386 52.0718 34.9951V15.2692C52.0704 13.9499 51.5456 12.685 50.6127 11.7521C49.6798 10.8192 48.4149 10.2945 47.0956 10.293H5.72052C5.81255 9.82423 6.05039 9.39652 6.40005 9.07099C6.74971 8.74546 7.1933 8.53876 7.66747 8.48042L48.9843 3.47015C49.5796 3.39864 50.179 3.56616 50.651 3.93595C51.123 4.30575 51.429 4.84764 51.502 5.44278L54.7693 32.3894C54.8058 32.6842 54.7835 32.9834 54.7036 33.2695C54.6237 33.5557 54.4879 33.8232 54.3039 34.0564Z" fill="url(#paint0_linear_12658_7836)"/>
<defs>
<linearGradient id="paint0_linear_12658_7836" x1="-9.07455" y1="-8.55239" x2="76.8738" y2="80.0058" gradientUnits="userSpaceOnUse">
<stop stop-color="#FF0A6C"/>
<stop offset="1" stop-color="#2D27FF"/>
</linearGradient>
</defs>
</svg>
