<svg width="52" height="60" viewBox="0 0 52 60" fill="none" xmlns="http://www.w3.org/2000/svg">
<path d="M50.7852 25.6395C51.4324 25.6395 51.957 25.1148 51.957 24.4676C51.957 23.8204 51.4324 23.2957 50.7852 23.2957H46.3459V20.1053H50.7852C51.4324 20.1053 51.957 19.5806 51.957 18.9334C51.957 18.2862 51.4324 17.7615 50.7852 17.7615H46.3459V15.8442C46.3459 15.5336 46.2226 15.2357 46.003 15.0159L42.6143 11.6244C42.3945 11.4045 42.0963 11.2808 41.7853 11.2808H39.8675V6.84551C39.8675 6.19828 39.3428 5.67363 38.6956 5.67363C38.0484 5.67363 37.5238 6.19828 37.5238 6.84551V11.2808H34.3327V6.84551C34.3327 6.19828 33.8081 5.67363 33.1609 5.67363C32.5136 5.67363 31.989 6.19828 31.989 6.84551V11.2808H28.8012V7.08129C28.8012 3.1766 25.6243 0 21.7191 0C18.5241 0 15.7474 2.15953 14.9005 5.15965C12.4651 5.40715 10.2086 6.48387 8.46734 8.24672C6.50094 10.2377 5.41801 12.8757 5.41801 15.6748C5.41801 17.0638 5.69223 18.4396 6.21805 19.7149C4.57309 20.589 3.16168 21.8461 2.09176 23.3996C0.751485 25.3459 0.0429688 27.6277 0.0429688 29.9984C0.0429688 34.3625 2.42914 38.277 6.21746 40.2851C5.69223 41.5581 5.41824 42.9327 5.41824 44.322C5.41824 47.121 6.50117 49.759 8.46758 51.75C10.2087 53.5129 12.4652 54.5896 14.9006 54.8371C15.7474 57.8392 18.5244 60 21.7194 60C25.6244 60 28.8015 56.8234 28.8015 52.9187V48.7159H31.9892V53.1545C31.9892 53.8017 32.5139 54.3264 33.1611 54.3264C33.8083 54.3264 34.333 53.8017 34.333 53.1545V48.7159H37.524V53.1545C37.524 53.8017 38.0486 54.3264 38.6959 54.3264C39.3431 54.3264 39.8677 53.8017 39.8677 53.1545V48.7159H41.7855C42.0963 48.7159 42.3943 48.5925 42.6141 48.3727L46.0029 44.9844C46.2226 44.7647 46.3461 44.4666 46.3461 44.1558V42.2351H50.7852C51.4324 42.2351 51.957 41.7104 51.957 41.0632C51.957 40.416 51.4324 39.8913 50.7852 39.8913H46.3459V36.7043H50.7852C51.4324 36.7043 51.957 36.1796 51.957 35.5324C51.957 34.8852 51.4324 34.3605 50.7852 34.3605H46.3459V31.1702H50.7852C51.4324 31.1702 51.957 30.6456 51.957 29.9984C51.957 29.3511 51.4324 28.8265 50.7852 28.8265H46.3459V25.6395H50.7852ZM21.7194 57.6562C19.7754 57.6562 18.0638 56.4608 17.3432 54.7345C18.198 54.5815 19.0314 54.3214 19.8329 53.9537C20.9976 53.419 22.0393 52.6871 22.9289 51.7785C23.3816 51.3159 23.3737 50.574 22.9113 50.1212C22.4488 49.6685 21.707 49.6764 21.254 50.1388C20.5655 50.8419 19.7585 51.4088 18.8553 51.8234C17.9009 52.2612 16.8894 52.5039 15.8484 52.5461C11.3868 52.4725 7.76199 48.7895 7.76199 44.3216C7.76199 42.9098 8.12469 41.5188 8.81082 40.2987C8.97629 40.0046 9.00688 39.6536 8.89484 39.3354C8.78293 39.0171 8.53918 38.7626 8.22617 38.6368C4.67891 37.2122 2.38672 33.8213 2.38672 29.9984C2.38672 26.1744 4.67855 22.7849 8.22547 21.3633C8.92227 20.9865 9.11762 20.4327 8.81152 19.7021C8.12492 18.4785 7.76199 17.0858 7.76199 15.6749C7.76199 11.207 11.3868 7.52402 15.8484 7.45043C16.8828 7.4925 17.8952 7.73543 18.8551 8.17301C19.7599 8.58832 20.5664 9.15563 21.2523 9.85922C21.482 10.0948 21.7866 10.2131 22.0916 10.2131C22.3864 10.2131 22.6816 10.1025 22.9094 9.88043C23.3729 9.42867 23.3823 8.68664 22.9305 8.22328C22.0427 7.31262 21.0004 6.57902 19.83 6.04172C19.0261 5.67527 18.1938 5.41582 17.3431 5.26289C18.0637 3.53801 19.7752 2.34375 21.7194 2.34375C24.3321 2.34375 26.4577 4.46906 26.4577 7.08129V21.4488H22.8095L19.7004 18.3401C20.0313 17.736 20.2078 17.0554 20.2078 16.3474C20.2078 15.237 19.7754 14.1929 18.9898 13.4077C17.3689 11.787 14.7313 11.7868 13.1102 13.4077C12.3249 14.1929 11.8924 15.237 11.8924 16.3473C11.8924 17.4577 12.3248 18.5017 13.1102 19.287C13.9207 20.0973 14.9853 20.5025 16.05 20.5025C16.7367 20.5025 17.4229 20.3329 18.0416 19.9957L21.4953 23.4491C21.7453 23.6728 22.0215 23.7873 22.3239 23.7923H26.4576V28.8263H19.1138C18.6062 27.1043 17.0105 25.8432 15.1249 25.8432C12.8336 25.8432 10.9696 27.7071 10.9696 29.9981C10.9696 32.2909 12.8336 34.1563 15.1249 34.1563C17.0109 34.1563 18.6068 32.8938 19.1141 31.17H26.4576V36.2039H22.3239C22.2925 36.2039 22.2656 36.2055 22.2407 36.2079C21.9691 36.2271 21.7027 36.3396 21.495 36.5474L18.0411 40.0036C16.4638 39.144 14.4432 39.3797 13.1101 40.7126C12.324 41.4987 11.8916 42.5435 11.8923 43.6548C11.893 44.7645 12.326 45.8068 13.1101 46.5887C13.9208 47.3993 14.9855 47.8044 16.0503 47.8044C17.1146 47.8044 18.1789 47.3994 18.9886 46.5899C19.7738 45.8068 20.2068 44.7646 20.2075 43.6549C20.208 42.9459 20.0314 42.2644 19.6999 41.6595L22.8095 38.5478H26.4574V52.9186C26.4576 55.5309 24.3321 57.6562 21.7194 57.6562ZM17.864 16.3475C17.864 16.8319 17.6754 17.2873 17.3328 17.6298C16.6255 18.337 15.4748 18.337 14.7675 17.6298C14.4249 17.2873 14.2362 16.8319 14.2362 16.3475C14.2362 15.8632 14.4249 15.4077 14.7675 15.0653C15.4748 14.3582 16.6256 14.3582 17.3328 15.0653C17.6754 15.4077 17.864 15.8631 17.864 16.3475ZM16.9396 29.9984C16.9396 30.9988 16.1255 31.8128 15.1249 31.8128C14.1261 31.8128 13.3134 30.9988 13.3134 29.9984C13.3134 28.9998 14.1261 28.1872 15.1249 28.1872C16.1255 28.1872 16.9396 28.9997 16.9396 29.9984ZM17.864 43.6534C17.8637 44.1363 17.6755 44.5898 17.3328 44.9314C16.6255 45.6386 15.4747 45.6387 14.7663 44.9303C14.4248 44.5898 14.2365 44.1363 14.2362 43.6534C14.2359 43.1688 14.4246 42.7131 14.7675 42.3702C15.4747 41.6632 16.6255 41.6631 17.3326 42.3701C17.3327 42.3702 17.3328 42.3703 17.3329 42.3705L17.333 42.3707C17.6758 42.7136 17.8644 43.1691 17.864 43.6534ZM44.0021 43.6703L41.3 46.3722H28.8014V42.8994H39.3568C40.004 42.8994 40.5287 42.3748 40.5287 41.7275V35.2567C40.5287 34.6095 40.004 34.0848 39.3568 34.0848C38.7096 34.0848 38.1849 34.6095 38.1849 35.2567V40.5557H28.8014V19.4443H38.1849V24.73C38.1849 25.3772 38.7096 25.9018 39.3568 25.9018C40.004 25.9018 40.5287 25.3772 40.5287 24.73V18.2725C40.5287 17.6252 40.004 17.1006 39.3568 17.1006H28.8014V13.6246H41.2996L44.0021 16.3294V43.6703Z" fill="url(#paint0_linear_12658_7871)"/>
<defs>
<linearGradient id="paint0_linear_12658_7871" x1="-8.67727" y1="-10.0785" x2="83.615" y2="69.7759" gradientUnits="userSpaceOnUse">
<stop stop-color="#FF0A6C"/>
<stop offset="1" stop-color="#2D27FF"/>
</linearGradient>
</defs>
</svg>
