<svg width="53" height="52" viewBox="0 0 53 52" fill="none" xmlns="http://www.w3.org/2000/svg">
<path d="M52.7292 50.2045L48.9494 16.4069C48.8626 15.6317 48.2072 15.0455 47.4272 15.0455H37.984V12.3397C37.984 6.06203 32.8767 0.954712 26.5991 0.954712C20.3214 0.954712 15.2141 6.06203 15.2141 12.3397V15.0455H5.76598C4.98588 15.0455 4.33035 15.6318 4.24386 16.4071L0.468952 50.2047C0.420553 50.6379 0.55901 51.071 0.849608 51.3959C1.14021 51.7208 1.55527 51.9064 1.99117 51.9064H51.2072C51.6431 51.9064 52.0582 51.7208 52.3488 51.3959C52.6394 51.071 52.7777 50.6376 52.7292 50.2045ZM18.2773 12.3397C18.2773 7.75109 22.0105 4.01794 26.5991 4.01794C31.1877 4.01794 34.9208 7.75109 34.9208 12.3397V15.0455H18.2773V12.3397ZM3.70331 48.8431L7.13606 18.1088H15.2141V21.4355C13.4314 22.0678 12.1509 23.7702 12.1509 25.7668C12.1509 28.3004 14.2121 30.3617 16.7457 30.3617C19.2793 30.3617 21.3405 28.3004 21.3405 25.7668C21.3405 23.7701 20.06 22.0678 18.2773 21.4355V18.1088H34.9208V21.4355C33.1381 22.0678 31.8576 23.7702 31.8576 25.7668C31.8576 28.3004 33.9188 30.3617 36.4524 30.3617C38.986 30.3617 41.0473 28.3004 41.0473 25.7668C41.0473 23.7701 39.7667 22.0678 37.984 21.4355V18.1088H46.0574L49.4946 48.8431H3.70331ZM16.7457 24.2353C17.5902 24.2353 18.2773 24.9224 18.2773 25.7669C18.2773 26.6115 17.5902 27.2985 16.7457 27.2985C15.9012 27.2985 15.2141 26.6115 15.2141 25.7669C15.2141 24.9224 15.9011 24.2353 16.7457 24.2353ZM36.4524 24.2353C37.297 24.2353 37.984 24.9224 37.984 25.7669C37.984 26.6115 37.297 27.2985 36.4524 27.2985C35.6079 27.2985 34.9208 26.6115 34.9208 25.7669C34.9208 24.9224 35.6078 24.2353 36.4524 24.2353Z" fill="url(#paint0_linear_12659_9156)"/>
<defs>
<linearGradient id="paint0_linear_12659_9156" x1="-8.32211" y1="-7.60388" x2="70.8484" y2="73.6293" gradientUnits="userSpaceOnUse">
<stop stop-color="#FF0A6C"/>
<stop offset="1" stop-color="#2D27FF"/>
</linearGradient>
</defs>
</svg>
