<svg width="45" height="49" viewBox="0 0 45 49" fill="none" xmlns="http://www.w3.org/2000/svg">
<path d="M41.3023 45.7314H41.4523V45.5814V33.8063V33.6563H41.3023H3.69766H3.54766V33.8063V45.5814V45.7314H3.69766H41.3023ZM41.3023 30.5376H41.4523V30.3876V18.6123V18.4623H41.3023H3.69766H3.54766V18.6123V30.3876V30.5376H3.69766H41.3023ZM41.3023 15.3437H41.4523V15.1937V3.41861V3.26861H41.3023H3.69766H3.54766V3.41861V15.1937V15.3437H3.69766H41.3023ZM1.98831 0.15H43.0116C43.8727 0.15 44.5709 0.84818 44.5708 1.70924V1.71461V1.72095V1.72826V1.73655V1.7458V1.75602V1.7672V1.77933V1.79242V1.80646V1.82144V1.83737V1.85423V1.87203V1.89075V1.91041V1.93098V1.95248V1.97489V1.99821V2.02243V2.04756V2.07359V2.10052V2.12834V2.15704V2.18663V2.2171V2.24845V2.28067V2.31375V2.3477V2.38252V2.41819V2.45471V2.49208V2.5303V2.56936V2.60926V2.65V2.69156V2.73395V2.77716V2.82119V2.86604V2.9117V2.95816V3.00543V3.0535V3.10236V3.15201V3.20246V3.25369V3.30569V3.35848V3.41204V3.46636V3.52145V3.57731V3.63392V3.69128V3.74939V3.80825V3.86786V3.9282V3.98927V4.05107V4.1136V4.17686V4.24083V4.30552V4.37092V4.43703V4.50384V4.57135V4.63955V4.70845V4.77804V4.84831V4.91926V4.99089V5.06319V5.13616V5.2098V5.2841V5.35905V5.43466V5.51092V5.58783V5.66537V5.74356V5.82238V5.90183V5.98191V6.06261V6.14393V6.22586V6.30841V6.39157V6.47532V6.55968V6.64464V6.73018V6.81632V6.90304V6.99034V7.07822V7.16667V7.25569V7.34528V7.43542V7.52613V7.61739V7.7092V7.80155V7.89445V7.98789V8.08186V8.17636V8.27139V8.36694V8.46302V8.5596V8.6567V8.75431V8.85242V8.95103V9.05014V9.14974V9.24983V9.3504V9.45146V9.55299V9.655V9.75747V9.86041V9.96381V10.0677V10.172V10.2768V10.382V10.4876V10.5937V10.7002V10.8072V10.9146V11.0224V11.1306V11.2393V11.3483V11.4578V11.5677V11.6779V11.7886V11.8997V12.0111V12.1229V12.2352V12.3477V12.4607V12.574V12.6877V12.8018V12.9162V13.031V13.1461V13.2616V13.3774V13.4936V13.6101V13.7269V13.844V13.9615V14.0793V14.1974V14.3158V14.4345V14.5536V14.6729V14.7925V14.9125V15.0327V15.1532V15.274V15.395V15.5163V15.6379V15.7598V15.8819V16.0043V16.127V16.2498V16.373V16.4964V16.62V16.7438V16.8679V16.9922V17.1168V17.2415V17.3665V17.4917V17.6171V17.7427V17.8685V17.9945V18.1207V18.2471V18.3736V18.5004V18.6273V18.7544V18.8817V19.0091V19.1367V19.2645V19.3924V19.5205V19.6487V19.777V19.9055V20.0341V20.1629V20.2918V20.4208V20.5499V20.6792V20.8085V20.938V21.0676V21.1973V21.327V21.4569V21.5868V21.7169V21.847V21.9772V22.1075V22.2378V22.3682V22.4987V22.6292V22.7598V22.8905V23.0212V23.1519V23.2827V23.4135V23.5443V23.6752V23.8061V23.937V24.0679V24.1988V24.3298V24.4607V24.5917V24.7226V24.8536V24.9845V25.1154V25.2463V25.3772V25.5081V25.6389V25.7697V25.9004V26.0311V26.1618V26.2924V26.423V26.5535V26.684V26.8144V26.9447V27.0749V27.2051V27.3352V27.4652V27.5951V27.7249V27.8547V27.9843V28.1139V28.2433V28.3726V28.5018V28.6309V28.7599V28.8887V29.0174V29.146V29.2744V29.4027V29.5309V29.6589V29.7867V29.9144V30.042V30.1693V30.2966V30.4236V30.5504V30.6771V30.8036V30.9299V31.0561V31.182V31.3077V31.4332V31.5585V31.6837V31.8085V31.9332V32.0577V32.1819V32.3059V32.4297V32.5532V32.6765V32.7995V32.9223V33.0449V33.1672V33.2892V33.411V33.5325V33.6537V33.7747V33.8953V34.0157V34.1358V34.2556V34.3752V34.4944V34.6133V34.7319V34.8502V34.9682V35.0859V35.2032V35.3202V35.4369V35.5533V35.6693V35.785V35.9004V36.0154V36.13V36.2443V36.3582V36.4718V36.585V36.6978V36.8102V36.9223V37.034V37.1453V37.2562V37.3667V37.4769V37.5866V37.6959V37.8048V37.9133V38.0213V38.129V38.2362V38.343V38.4494V38.5553V38.6608V38.7658V38.8704V38.9746V39.0783V39.1815V39.2843V39.3866V39.4884V39.5897V39.6906V39.791V39.8909V39.9903V40.0893V40.1877V40.2856V40.383V40.4799V40.5763V40.6722V40.7676V40.8624V40.9567V41.0505V41.1437V41.2364V41.3285V41.4201V41.5112V41.6017V41.6916V41.781V41.8698V41.958V42.0457V42.1328V42.2193V42.3052V42.3905V42.4753V42.5594V42.6429V42.7258V42.8082V42.8899V42.971V43.0514V43.1313V43.2105V43.2891V43.367V43.4443V43.521V43.597V43.6724V43.7471V43.8211V43.8945V43.9672V44.0393V44.1106V44.1813V44.2514V44.3207V44.3893V44.4573V44.5245V44.5911V44.6569V44.722V44.7864V44.8502V44.9131V44.9754V45.0369V45.0977V45.1578V45.2171V45.2757V45.3335V45.3906V45.4469V45.5025V45.5573V45.6113V45.6646V45.7171V45.7688V45.8197V45.8699V45.9192V45.9678V46.0156V46.0625V46.1087V46.1541V46.1986V46.2423V46.2852V46.3273V46.3686V46.409V46.4486V46.4873V46.5252V46.5623V46.5985V46.6338V46.6683V46.7019V46.7347V46.7666V46.7976V46.8277V46.857V46.8854V46.9128V46.9394V46.9651V46.9899V47.0138V47.0368V47.0588V47.08V47.1002V47.1195V47.1379V47.1553V47.1719V47.1874V47.2021V47.2157V47.2285V47.2402V47.2511V47.2609V47.2698V47.2777V47.2847V47.2906C44.5708 48.1517 43.8727 48.8499 43.0116 48.8499H1.98831C1.12723 48.8499 0.429053 48.1518 0.429053 47.2906V47.2853V47.2789V47.2716V47.2634V47.2541V47.2439V47.2327V47.2206V47.2075V47.1934V47.1785V47.1625V47.1457V47.1279V47.1091V47.0895V47.0689V47.0474V47.025V47.0017V46.9775V46.9523V46.9263V46.8994V46.8716V46.8429V46.8133V46.7828V46.7515V46.7192V46.6861V46.6522V46.6174V46.5817V46.5452V46.5078V46.4696V46.4305V46.3906V46.3499V46.3083V46.2659V46.2227V46.1787V46.1339V46.0882V46.0417V45.9945V45.9464V45.8975V45.8479V45.7974V45.7462V45.6942V45.6414V45.5879V45.5335V45.4784V45.4226V45.366V45.3086V45.2505V45.1916V45.132V45.0717V45.0106V44.9488V44.8863V44.823V44.7591V44.6944V44.629V44.5629V44.4961V44.4286V44.3603V44.2914V44.2219V44.1516V44.0806V44.009V43.9367V43.8637V43.7901V43.7158V43.6408V43.5652V43.489V43.4121V43.3345V43.2563V43.1775V43.0981V43.018V42.9373V42.856V42.774V42.6915V42.6083V42.5246V42.4402V42.3553V42.2697V42.1836V42.0969V42.0096V41.9217V41.8332V41.7442V41.6546V41.5645V41.4738V41.3825V41.2907V41.1983V41.1054V41.012V40.918V40.8235V40.7285V40.633V40.5369V40.4403V40.3432V40.2456V40.1475V40.0489V39.9498V39.8502V39.7501V39.6495V39.5484V39.4469V39.3449V39.2424V39.1395V39.0361V38.9322V38.8279V38.7231V38.6179V38.5123V38.4062V38.2997V38.1927V38.0853V37.9775V37.8693V37.7606V37.6516V37.5421V37.4322V37.322V37.2113V37.1002V36.9888V36.877V36.7647V36.6522V36.5392V36.4259V36.3122V36.1981V36.0837V35.9689V35.8538V35.7383V35.6225V35.5063V35.3898V35.273V35.1559V35.0384V34.9206V34.8025V34.6841V34.5654V34.4463V34.327V34.2074V34.0874V33.9672V33.8467V33.7259V33.6049V33.4836V33.362V33.2401V33.118V32.9956V32.8729V32.75V32.6269V32.5035V32.3799V32.2561V32.132V32.0077V31.8831V31.7584V31.6334V31.5082V31.3828V31.2572V31.1314V31.0054V30.8792V30.7528V30.6263V30.4995V30.3726V30.2455V30.1182V29.9908V29.8632V29.7354V29.6075V29.4794V29.3512V29.2229V29.0944V28.9658V28.837V28.7081V28.5791V28.45V28.3207V28.1914V28.0619V27.9323V27.8026V27.6729V27.543V27.4131V27.283V27.1529V27.0227V26.8924V26.7621V26.6317V26.5012V26.3707V26.2401V26.1094V25.9787V25.848V25.7172V25.5864V25.4556V25.3247V25.1938V25.0629V24.932V24.8011V24.6701V24.5392V24.4082V24.2773V24.1463V24.0154V23.8845V23.7536V23.6227V23.4918V23.361V23.2302V23.0995V22.9688V22.8381V22.7075V22.5769V22.4464V22.3159V22.1855V22.0552V21.925V21.7948V21.6647V21.5347V21.4048V21.275V21.1452V21.0156V20.886V20.7566V20.6273V20.4981V20.369V20.24V20.1112V19.9825V19.8539V19.7255V19.5972V19.469V19.341V19.2132V19.0855V18.9579V18.8306V18.7033V18.5763V18.4495V18.3228V18.1963V18.07V17.9438V17.8179V17.6922V17.5667V17.4414V17.3162V17.1914V17.0667V16.9422V16.818V16.694V16.5702V16.4467V16.3234V16.2004V16.0776V15.955V15.8327V15.7107V15.5889V15.4674V15.3462V15.2252V15.1046V14.9842V14.8641V14.7443V14.6247V14.5055V14.3866V14.268V14.1497V14.0317V13.914V13.7967V13.6797V13.563V13.4466V13.3306V13.2149V13.0995V12.9845V12.8699V12.7556V12.6417V12.5281V12.4149V12.3021V12.1897V12.0776V11.9659V11.8546V11.7437V11.6332V11.523V11.4133V11.304V11.1951V11.0866V10.9786V10.8709V10.7637V10.6569V10.5505V10.4446V10.3391V10.2341V10.1295V10.0253V9.92163V9.8184V9.71563V9.61333V9.5115V9.41015V9.30928V9.20889V9.10898V9.00956V8.91064V8.81222V8.7143V8.61688V8.51997V8.42358V8.3277V8.23235V8.13751V8.04321V7.94944V7.85621V7.76351V7.67136V7.57976V7.48871V7.39821V7.30827V7.2189V7.13009V7.04186V6.9542V6.86711V6.78061V6.6947V6.60937V6.52464V6.44051V6.35698V6.27405V6.19174V6.11003V6.02894V5.94848V5.86863V5.78942V5.71084V5.63289V5.55559V5.47892V5.40291V5.32755V5.25284V5.17879V5.1054V5.03268V4.96063V4.88926V4.81856V4.74855V4.67922V4.61058V4.54264V4.47539V4.40884V4.343V4.27787V4.21345V4.14975V4.08676V4.02451V3.96298V3.90218V3.84212V3.78279V3.72421V3.66638V3.6093V3.55298V3.49741V3.44261V3.38857V3.3353V3.28281V3.23109V3.18016V3.13001V3.08065V3.03209V2.98432V2.93736V2.8912V2.84584V2.8013V2.75758V2.71468V2.6726V2.63135V2.59093V2.55134V2.5126V2.4747V2.43764V2.40144V2.36609V2.3316V2.29798V2.26521V2.23332V2.20231V2.17217V2.14291V2.11454V2.08706V2.06047V2.03478V2.00999V1.9861V1.96312V1.94106V1.91991V1.89968V1.88037V1.86199V1.84455V1.82804V1.81247V1.79784V1.78416V1.77143V1.75965V1.74883V1.73898V1.73009V1.72217V1.71523V1.70926C0.429053 0.848175 1.12714 0.15 1.98831 0.15Z" fill="url(#paint0_linear_12658_7796)" stroke="white" stroke-width="0.3"/>
<defs>
<linearGradient id="paint0_linear_12658_7796" x1="-7.18603" y1="-8.23073" x2="68.6153" y2="60.5192" gradientUnits="userSpaceOnUse">
<stop stop-color="#FF0A6C"/>
<stop offset="1" stop-color="#2D27FF"/>
</linearGradient>
</defs>
</svg>
