<svg width="57" height="52" viewBox="0 0 57 52" fill="none" xmlns="http://www.w3.org/2000/svg">
<path d="M17.9029 17.479H7.39354C6.50951 17.479 5.79197 16.7615 5.79197 15.8775C5.79197 14.9934 6.50951 14.2759 7.39354 14.2759H17.9029C18.787 14.2759 19.5045 14.9934 19.5045 15.8775C19.5045 16.7615 18.787 17.479 17.9029 17.479Z" fill="url(#paint0_linear_12658_7846)" stroke="white" stroke-width="0.3"/>
<path d="M17.9029 38.1929H7.39354C6.50951 38.1929 5.79197 37.4753 5.79197 36.5913C5.79197 35.7073 6.50951 34.9898 7.39354 34.9898H17.9029C18.787 34.9898 19.5045 35.7073 19.5045 36.5913C19.5045 37.4753 18.787 38.1929 17.9029 38.1929Z" fill="url(#paint1_linear_12658_7846)" stroke="white" stroke-width="0.3"/>
<path d="M40.2926 42.1993L50.802 42.1993C51.686 42.1993 52.4036 42.9168 52.4036 43.8009C52.4036 44.6849 51.686 45.4024 50.802 45.4024L40.2926 45.4024C39.4086 45.4024 38.691 44.6849 38.691 43.8009C38.691 42.9168 39.4086 42.1993 40.2926 42.1993Z" fill="url(#paint2_linear_12658_7846)" stroke="white" stroke-width="0.3"/>
<path d="M39.6832 20.5206L50.1926 20.5206C51.0767 20.5206 51.7942 21.2382 51.7942 22.1222C51.7942 23.0062 51.0767 23.7237 50.1926 23.7237L39.6832 23.7237C38.7992 23.7237 38.0817 23.0062 38.0817 22.1222C38.0817 21.2382 38.7992 20.5206 39.6832 20.5206Z" fill="url(#paint3_linear_12658_7846)" stroke="white" stroke-width="0.3"/>
<path d="M28.9454 17.6313H22.5483C22.3296 17.6313 22.1037 17.478 21.9241 17.1702C21.7467 16.8661 21.6322 16.4362 21.6322 15.9536C21.6322 15.471 21.7467 15.0411 21.9241 14.737C22.1037 14.4292 22.3296 14.2759 22.5483 14.2759H28.9454C29.1641 14.2759 29.39 14.4292 29.5696 14.737C29.747 15.0411 29.8616 15.471 29.8616 15.9536C29.8616 16.4362 29.747 16.8661 29.5696 17.1702C29.39 17.478 29.1641 17.6313 28.9454 17.6313Z" fill="url(#paint4_linear_12658_7846)" stroke="white" stroke-width="0.3"/>
<path d="M6.70806 42.3009L13.1051 42.3009C13.3238 42.3009 13.5497 42.4542 13.7293 42.762C13.9067 43.0661 14.0213 43.496 14.0213 43.9786C14.0213 44.4613 13.9067 44.8911 13.7293 45.1952C13.5497 45.5031 13.3238 45.6563 13.1051 45.6563L6.70806 45.6563C6.48935 45.6563 6.26341 45.5031 6.08385 45.1952C5.90645 44.8911 5.79189 44.4613 5.79189 43.9786C5.79189 43.496 5.90645 43.0661 6.08385 42.762C6.26341 42.4542 6.48935 42.3009 6.70806 42.3009Z" fill="url(#paint5_linear_12658_7846)" stroke="white" stroke-width="0.3"/>
<path d="M42.0442 17.6313H33.8194C33.4989 17.6313 33.1971 17.4583 32.9703 17.1558C32.7434 16.8533 32.5986 16.4287 32.5986 15.9536C32.5986 15.4785 32.7434 15.0539 32.9703 14.7514C33.1971 14.449 33.4989 14.2759 33.8194 14.2759H42.0442C42.3646 14.2759 42.6665 14.449 42.8933 14.7514C43.1202 15.0539 43.2649 15.4785 43.2649 15.9536C43.2649 16.4287 43.1202 16.8533 42.8933 17.1558C42.6665 17.4583 42.3646 17.6313 42.0442 17.6313Z" fill="url(#paint6_linear_12658_7846)" stroke="white" stroke-width="0.3"/>
<path d="M50.2689 38.3452H40.2164C39.3865 38.3452 38.691 37.6061 38.691 36.6675C38.691 35.7289 39.3865 34.9898 40.2164 34.9898H50.2689C51.0989 34.9898 51.7943 35.7289 51.7943 36.6675C51.7943 37.6061 51.0989 38.3452 50.2689 38.3452Z" fill="url(#paint7_linear_12658_7846)" stroke="white" stroke-width="0.3"/>
<path d="M17.979 42.3009L26.2038 42.3009C26.5243 42.3009 26.8261 42.474 27.0529 42.7764C27.2798 43.0789 27.4246 43.5035 27.4246 43.9786C27.4246 44.4537 27.2798 44.8783 27.0529 45.1808C26.8261 45.4833 26.5243 45.6563 26.2038 45.6563L17.979 45.6563C17.6585 45.6563 17.3567 45.4833 17.1299 45.1808C16.903 44.8783 16.7582 44.4537 16.7582 43.9786C16.7582 43.5035 16.903 43.0789 17.1299 42.7764C17.3567 42.474 17.6585 42.3009 17.979 42.3009Z" fill="url(#paint8_linear_12658_7846)" stroke="white" stroke-width="0.3"/>
<path d="M14.9329 20.3683L19.5022 20.3683C19.555 20.3683 19.619 20.3934 19.6917 20.4672C19.7649 20.5416 19.8378 20.6569 19.9022 20.8115C20.0307 21.12 20.1138 21.5564 20.1138 22.046C20.1138 22.5356 20.0307 22.9721 19.9022 23.2805C19.8378 23.4351 19.7649 23.5504 19.6917 23.6248C19.619 23.6987 19.555 23.7237 19.5022 23.7237L14.9329 23.7237C14.8801 23.7237 14.8162 23.6987 14.7435 23.6248C14.6703 23.5504 14.5974 23.4351 14.533 23.2805C14.4044 22.9721 14.3214 22.5356 14.3214 22.046C14.3214 21.5564 14.4044 21.12 14.533 20.8115C14.5974 20.6569 14.6703 20.5416 14.7435 20.4672C14.8162 20.3934 14.8801 20.3683 14.9329 20.3683Z" fill="url(#paint9_linear_12658_7846)" stroke="white" stroke-width="0.3"/>
<path d="M51.1828 17.6313H46.6135C46.5607 17.6313 46.4968 17.6063 46.424 17.5324C46.3508 17.458 46.2779 17.3427 46.2135 17.1881C46.085 16.8796 46.0019 16.4432 46.0019 15.9536C46.0019 15.464 46.085 15.0276 46.2135 14.7191C46.2779 14.5645 46.3508 14.4492 46.424 14.3748C46.4968 14.301 46.5607 14.2759 46.6135 14.2759H51.1828C51.2356 14.2759 51.2995 14.301 51.3722 14.3748C51.4455 14.4492 51.5183 14.5645 51.5827 14.7191C51.7113 15.0276 51.7943 15.464 51.7943 15.9536C51.7943 16.4432 51.7113 16.8796 51.5827 17.1881C51.5183 17.3427 51.4455 17.458 51.3722 17.5324C51.2995 17.6063 51.2356 17.6313 51.1828 17.6313Z" fill="url(#paint10_linear_12658_7846)" stroke="white" stroke-width="0.3"/>
<path d="M30.7731 42.3009L35.3425 42.3009C35.3952 42.3009 35.4592 42.326 35.5319 42.3998C35.6051 42.4742 35.678 42.5895 35.7424 42.7441C35.8709 43.0526 35.954 43.489 35.954 43.9786C35.954 44.4682 35.8709 44.9046 35.7424 45.2131C35.678 45.3677 35.6051 45.483 35.5319 45.5574C35.4592 45.6313 35.3952 45.6563 35.3425 45.6563L30.7731 45.6563C30.7204 45.6563 30.6564 45.6313 30.5837 45.5574C30.5105 45.483 30.4376 45.3677 30.3732 45.2131C30.2447 44.9046 30.1616 44.4682 30.1616 43.9786C30.1616 43.489 30.2447 43.0526 30.3732 42.7441C30.4376 42.5895 30.5105 42.4742 30.5837 42.3998C30.6564 42.326 30.7204 42.3009 30.7731 42.3009Z" fill="url(#paint11_linear_12658_7846)" stroke="white" stroke-width="0.3"/>
<path d="M6.40352 20.3683L10.9728 20.3683C11.0256 20.3683 11.0895 20.3934 11.1623 20.4672C11.2355 20.5416 11.3084 20.6569 11.3728 20.8115C11.5013 21.12 11.5844 21.5564 11.5844 22.046C11.5844 22.5356 11.5013 22.9721 11.3728 23.2805C11.3084 23.4351 11.2355 23.5504 11.1623 23.6248C11.0895 23.6987 11.0256 23.7237 10.9728 23.7237L6.40352 23.7237C6.35073 23.7237 6.28679 23.6987 6.21407 23.6248C6.14083 23.5504 6.06796 23.4351 6.00356 23.2805C5.87503 22.9721 5.79196 22.5356 5.79196 22.046C5.79196 21.5564 5.87503 21.12 6.00356 20.8115C6.06796 20.6569 6.14083 20.5416 6.21406 20.4672C6.28679 20.3934 6.35073 20.3683 6.40352 20.3683Z" fill="url(#paint12_linear_12658_7846)" stroke="white" stroke-width="0.3"/>
<path d="M7.16519 27.6794L16.3038 27.6794C17.0373 27.6794 17.6769 28.4043 17.6769 29.3571C17.6769 30.3099 17.0373 31.0348 16.3038 31.0348L7.16519 31.0348C6.43172 31.0348 5.79208 30.3099 5.79208 29.3571C5.79208 28.4043 6.43172 27.6794 7.16519 27.6794Z" fill="url(#paint13_linear_12658_7846)" stroke="white" stroke-width="0.3"/>
<path d="M41.2825 27.6794L50.4211 27.6794C51.1546 27.6794 51.7942 28.4043 51.7942 29.3571C51.7942 30.3099 51.1546 31.0348 50.4211 31.0348L41.2825 31.0348C40.549 31.0348 39.9094 30.3099 39.9094 29.3571C39.9094 28.4043 40.549 27.6794 41.2825 27.6794Z" fill="url(#paint14_linear_12658_7846)" stroke="white" stroke-width="0.3"/>
<path d="M50.3958 51.85H7.19048C3.73049 51.85 0.918066 49.0376 0.918066 45.5776V7.0431C0.918066 3.5831 3.73049 0.770682 7.19048 0.770682H50.3958C53.8558 0.770682 56.6682 3.5831 56.6682 7.0431V45.5776C56.6682 49.0376 53.8558 51.85 50.3958 51.85ZM7.19048 3.97382C5.49853 3.97382 4.1212 5.35115 4.1212 7.0431V45.5776C4.1212 47.2695 5.49853 48.6469 7.19048 48.6469H50.3958C52.0878 48.6469 53.4651 47.2695 53.4651 45.5776V7.0431C53.4651 5.35115 52.0878 3.97382 50.3958 3.97382H7.19048Z" fill="url(#paint15_linear_12658_7846)" stroke="white" stroke-width="0.3"/>
<path d="M54.3125 12.0001H3.6875C2.756 12.0001 2 11.3281 2 10.5001C2 9.67206 2.756 9.00006 3.6875 9.00006H54.3125C55.244 9.00006 56 9.67206 56 10.5001C56 11.3281 55.244 12.0001 54.3125 12.0001Z" fill="url(#paint16_linear_12658_7846)"/>
<path fill-rule="evenodd" clip-rule="evenodd" d="M28.7931 38.0892C33.2795 38.0892 36.9163 34.4523 36.9163 29.966C36.9163 25.4797 33.2795 21.8428 28.7931 21.8428C24.3068 21.8428 20.6699 25.4797 20.6699 29.966C20.6699 34.4523 24.3068 38.0892 28.7931 38.0892ZM31.6651 27.094C31.9824 27.4113 31.9824 27.9256 31.6651 28.2428L29.9419 29.966L31.6651 31.6892C31.9824 32.0064 31.9824 32.5208 31.6651 32.838C31.3479 33.1552 30.8336 33.1552 30.5163 32.838L28.7931 31.1148L27.0699 32.838C26.7527 33.1552 26.2384 33.1552 25.9211 32.838C25.6039 32.5208 25.6039 32.0064 25.9211 31.6892L27.6443 29.966L25.9211 28.2428C25.6039 27.9256 25.6039 27.4113 25.9211 27.094C26.2384 26.7768 26.7527 26.7768 27.0699 27.094L28.7931 28.8172L30.5163 27.094C30.8336 26.7768 31.3479 26.7768 31.6651 27.094Z" fill="url(#paint17_linear_12658_7846)"/>
<defs>
<linearGradient id="paint0_linear_12658_7846" x1="3.28822" y1="13.5374" x2="5.85061" y2="23.787" gradientUnits="userSpaceOnUse">
<stop stop-color="#FF0A6C"/>
<stop offset="1" stop-color="#2D27FF"/>
</linearGradient>
<linearGradient id="paint1_linear_12658_7846" x1="3.28822" y1="34.2513" x2="5.85062" y2="44.5009" gradientUnits="userSpaceOnUse">
<stop stop-color="#FF0A6C"/>
<stop offset="1" stop-color="#2D27FF"/>
</linearGradient>
<linearGradient id="paint2_linear_12658_7846" x1="54.9073" y1="46.1409" x2="52.3449" y2="35.8913" gradientUnits="userSpaceOnUse">
<stop stop-color="#FF0A6C"/>
<stop offset="1" stop-color="#2D27FF"/>
</linearGradient>
<linearGradient id="paint3_linear_12658_7846" x1="54.298" y1="24.4622" x2="51.7356" y2="14.2126" gradientUnits="userSpaceOnUse">
<stop stop-color="#FF0A6C"/>
<stop offset="1" stop-color="#2D27FF"/>
</linearGradient>
<linearGradient id="paint4_linear_12658_7846" x1="20.0495" y1="13.5119" x2="24.1639" y2="23.1122" gradientUnits="userSpaceOnUse">
<stop stop-color="#FF0A6C"/>
<stop offset="1" stop-color="#2D27FF"/>
</linearGradient>
<linearGradient id="paint5_linear_12658_7846" x1="15.604" y1="46.4204" x2="11.4896" y2="36.82" gradientUnits="userSpaceOnUse">
<stop stop-color="#FF0A6C"/>
<stop offset="1" stop-color="#2D27FF"/>
</linearGradient>
<linearGradient id="paint6_linear_12658_7846" x1="30.6065" y1="13.5119" x2="34.0156" y2="23.7392" gradientUnits="userSpaceOnUse">
<stop stop-color="#FF0A6C"/>
<stop offset="1" stop-color="#2D27FF"/>
</linearGradient>
<linearGradient id="paint7_linear_12658_7846" x1="36.2896" y1="34.2257" x2="39.1742" y2="44.8027" gradientUnits="userSpaceOnUse">
<stop stop-color="#FF0A6C"/>
<stop offset="1" stop-color="#2D27FF"/>
</linearGradient>
<linearGradient id="paint8_linear_12658_7846" x1="29.4167" y1="46.4204" x2="26.0076" y2="36.1931" gradientUnits="userSpaceOnUse">
<stop stop-color="#FF0A6C"/>
<stop offset="1" stop-color="#2D27FF"/>
</linearGradient>
<linearGradient id="paint9_linear_12658_7846" x1="21.2872" y1="24.4878" x2="16.2738" y2="16.1321" gradientUnits="userSpaceOnUse">
<stop stop-color="#FF0A6C"/>
<stop offset="1" stop-color="#2D27FF"/>
</linearGradient>
<linearGradient id="paint10_linear_12658_7846" x1="44.8286" y1="13.5119" x2="49.8419" y2="21.8675" gradientUnits="userSpaceOnUse">
<stop stop-color="#FF0A6C"/>
<stop offset="1" stop-color="#2D27FF"/>
</linearGradient>
<linearGradient id="paint11_linear_12658_7846" x1="37.1274" y1="46.4204" x2="32.114" y2="38.0647" gradientUnits="userSpaceOnUse">
<stop stop-color="#FF0A6C"/>
<stop offset="1" stop-color="#2D27FF"/>
</linearGradient>
<linearGradient id="paint12_linear_12658_7846" x1="12.7577" y1="24.4878" x2="7.74436" y2="16.1321" gradientUnits="userSpaceOnUse">
<stop stop-color="#FF0A6C"/>
<stop offset="1" stop-color="#2D27FF"/>
</linearGradient>
<linearGradient id="paint13_linear_12658_7846" x1="19.8736" y1="31.7988" x2="16.746" y2="21.3735" gradientUnits="userSpaceOnUse">
<stop stop-color="#FF0A6C"/>
<stop offset="1" stop-color="#2D27FF"/>
</linearGradient>
<linearGradient id="paint14_linear_12658_7846" x1="53.991" y1="31.7988" x2="50.8633" y2="21.3735" gradientUnits="userSpaceOnUse">
<stop stop-color="#FF0A6C"/>
<stop offset="1" stop-color="#2D27FF"/>
</linearGradient>
<linearGradient id="paint15_linear_12658_7846" x1="-8.64694" y1="-8.00973" x2="70.913" y2="78.783" gradientUnits="userSpaceOnUse">
<stop stop-color="#FF0A6C"/>
<stop offset="1" stop-color="#2D27FF"/>
</linearGradient>
<linearGradient id="paint16_linear_12658_7846" x1="-7.07063" y1="8.49614" x2="-6.5541" y2="17.7935" gradientUnits="userSpaceOnUse">
<stop stop-color="#FF0A6C"/>
<stop offset="1" stop-color="#2D27FF"/>
</linearGradient>
<linearGradient id="paint17_linear_12658_7846" x1="17.9409" y1="19.1138" x2="43.1935" y2="44.3664" gradientUnits="userSpaceOnUse">
<stop stop-color="#FF0A6C"/>
<stop offset="1" stop-color="#2D27FF"/>
</linearGradient>
</defs>
</svg>
