<svg width="49" height="49" viewBox="0 0 49 49" fill="none" xmlns="http://www.w3.org/2000/svg">
<path d="M48.9271 26.8402C48.7791 26.4825 48.4303 26.2496 48.043 26.2496H40.1531V22.7504H43.5502C43.5513 22.7504 43.5524 22.7508 43.5539 22.7508C43.57 22.7508 43.5864 22.7501 43.6025 22.7493C43.6055 22.7493 43.6081 22.7489 43.6111 22.7489C43.6156 22.7486 43.6204 22.7482 43.6253 22.7478C43.6313 22.7474 43.6376 22.7471 43.6436 22.7463C43.6451 22.7463 43.6462 22.7463 43.6474 22.7459C43.7991 22.7314 43.9401 22.6813 44.0627 22.6043C44.0627 22.6043 44.0627 22.6043 44.0631 22.6039C44.0687 22.6005 44.0747 22.5964 44.0803 22.5927C44.0818 22.5919 44.0829 22.5912 44.084 22.5904C44.0889 22.5871 44.0937 22.5837 44.0986 22.5803C44.1004 22.5792 44.1023 22.5777 44.1042 22.5766C44.1083 22.5736 44.112 22.571 44.1161 22.568C44.1188 22.5658 44.1214 22.5643 44.124 22.5624C44.127 22.5598 44.1304 22.5575 44.1333 22.5553C44.1367 22.5527 44.1401 22.5504 44.1431 22.5478C44.1457 22.5456 44.1483 22.5437 44.1505 22.5415C44.1543 22.5388 44.158 22.5358 44.1618 22.5325C44.1636 22.5314 44.1651 22.5295 44.167 22.5284C44.1715 22.5246 44.1756 22.5209 44.1797 22.5175C44.1808 22.5164 44.1819 22.5157 44.1831 22.5145C44.1995 22.5003 44.2152 22.4857 44.2305 22.47L48.7196 17.9813C48.8991 17.8015 49 17.5582 49 17.3043V1.24414C49 1.19517 48.9963 1.14732 48.9892 1.10021C49.0146 0.93161 48.9951 0.755531 48.9271 0.591042C48.7791 0.233276 48.4303 0 48.043 0H31.6953C31.4415 0 31.1981 0.100937 31.0187 0.28038L26.53 4.76945C26.5247 4.77431 26.5199 4.77917 26.515 4.78441C26.5139 4.7859 26.5124 4.78703 26.5113 4.78815C26.5075 4.79226 26.5042 4.796 26.5004 4.79974C26.4989 4.80161 26.4974 4.8031 26.4959 4.8046C26.4926 4.80833 26.4892 4.81245 26.4858 4.81618C26.4843 4.81768 26.4832 4.81918 26.4821 4.82067C26.4776 4.8259 26.4731 4.83076 26.469 4.836C26.4675 4.83787 26.466 4.83974 26.4645 4.84161C26.4615 4.84497 26.4589 4.84834 26.4559 4.85207C26.4541 4.85469 26.4518 4.85731 26.45 4.85955C26.4481 4.86217 26.4462 4.86478 26.444 4.8674C26.4417 4.87077 26.4391 4.87376 26.4369 4.87712C26.4357 4.87824 26.435 4.87974 26.4339 4.88086C26.3299 5.02254 26.2645 5.19376 26.2518 5.37956V5.38031C26.2511 5.38928 26.2507 5.39788 26.2503 5.40685C26.2503 5.41022 26.2499 5.41358 26.2499 5.41695C26.2499 5.42031 26.2496 5.4233 26.2496 5.42667V5.4405V5.44611V10.3225H22.7504V1.24414C22.7504 1.19517 22.7459 0.755531 22.6775 0.591042C22.5295 0.233276 22.1807 0 21.7934 0H5.44611C5.19227 0 4.9489 0.100937 4.76945 0.28038L0.28038 4.76945C0.269539 4.77992 0.156265 4.92161 0.155891 4.92236C0.0728989 5.04946 0.0190659 5.1975 0.00411225 5.35676C0.0037384 5.36012 0.00336456 5.36386 0.00336456 5.36723C0.00299072 5.37022 0.00261689 5.37283 0.00261689 5.37582C0.000747681 5.40162 0 21.7934 0 21.7934C0 22.322 0.428421 22.7504 0.957031 22.7504H12.13V26.2496H5.44611C5.19227 26.2496 4.9489 26.3505 4.76945 26.53L0.28038 31.0187C0.269539 31.0295 0 31.323 0 31.7032V48.043C0 48.5716 0.428421 49 0.957031 49H17.3006C17.701 49 17.9799 48.7211 17.9813 48.7196L22.47 44.2305C22.6495 44.0511 22.7504 43.8077 22.7504 43.5539V38.7732H26.2496V48.043C26.2496 48.5716 26.678 49 27.2066 49H43.5502C43.9318 49 44.2152 48.7353 44.2305 48.7196L48.7196 44.2305C48.8991 44.0511 49 43.8077 49 43.5539V27.4937C49 27.4447 48.9955 27.0047 48.9271 26.8402ZM45.7323 28.1636L43.1576 30.7383H29.5169L32.0919 28.1636H38.239V28.9663C38.239 29.4949 38.6674 29.9233 39.196 29.9233C39.7243 29.9233 40.1531 29.4949 40.1531 28.9663V28.1636H45.7323ZM28.1636 6.40314H38.2386V12.696C38.2386 13.2246 38.6674 13.653 39.1957 13.653C39.7243 13.653 40.1527 13.2246 40.1527 12.696V6.40314H42.5969V20.8364H28.1636V6.40314ZM44.5109 19.4831V5.84238L47.0859 3.26774V16.9081L44.5109 19.4831ZM32.0919 1.91406H45.7323L43.1576 4.48907H29.5169L32.0919 1.91406ZM20.2192 12.2365H20.8364V16.9081L18.2617 19.4831V5.84238L20.8364 3.26774V10.3225H20.2192C19.6905 10.3225 19.2621 10.7509 19.2621 11.2795C19.2621 11.8081 19.6905 12.2365 20.2192 12.2365ZM5.84238 1.91406H19.4831L16.9081 4.48907H3.26774L5.84238 1.91406ZM1.91406 6.40314H16.3477V20.8364H1.91406V6.40314ZM5.84238 28.1636H12.13V29.0298C12.13 29.5584 12.5584 29.9869 13.087 29.9869C13.6153 29.9869 14.0441 29.5584 14.0441 29.0298V28.1636H19.4831L16.9081 30.7383H3.26774L5.84238 28.1636ZM1.91406 32.6523H16.3477V47.0859H14.0441V38.2551C14.0441 37.7265 13.6153 37.298 13.087 37.298C12.5584 37.298 12.13 37.7265 12.13 38.2551V47.0859H1.91406V32.6523ZM20.8364 43.1576L18.2617 45.7326V32.0919L20.8364 29.5169V36.8592H20.2192C19.6905 36.8592 19.2621 37.2876 19.2621 37.8162C19.2621 38.3448 19.6905 38.7732 20.2192 38.7732H20.8364V43.1576ZM22.7504 36.8592V27.5894C22.7504 27.5236 22.7523 27.0204 22.6775 26.8402C22.5295 26.4825 22.1807 26.2496 21.7934 26.2496H14.0441V22.7504H17.3006C17.3017 22.7504 17.3967 22.7463 17.3978 22.7459C17.5578 22.7306 17.7058 22.6757 17.8329 22.5915C17.8333 22.5915 17.9799 22.4715 17.9813 22.47L22.47 17.9813C22.6495 17.8019 22.7504 17.5585 22.7504 17.3047V12.2365H26.2496V21.7934C26.2496 22.322 26.678 22.7504 27.2066 22.7504H38.239V26.2496H31.6953C31.4415 26.2496 31.1981 26.3505 31.0187 26.53L26.53 31.0187C26.5247 31.0235 26.2496 31.2848 26.2496 31.6953V36.8592H22.7504ZM28.1636 32.6523H42.5969V47.0859H28.1636V32.6523ZM44.5109 45.7326V32.0919L47.0859 29.5169V43.1576L44.5109 45.7326Z" fill="url(#paint0_linear_12658_7823)"/>
<defs>
<linearGradient id="paint0_linear_12658_7823" x1="-8.23075" y1="-8.23075" x2="67.9323" y2="67.9323" gradientUnits="userSpaceOnUse">
<stop stop-color="#FF0A6C"/>
<stop offset="1" stop-color="#2D27FF"/>
</linearGradient>
</defs>
</svg>
