<svg width="36" height="36" viewBox="0 0 36 36" fill="none" xmlns="http://www.w3.org/2000/svg">
<g clip-path="url(#clip0_12658_7906)">
<path d="M31 0L5 0C2.23858 0 0 2.23858 0 5L0 31C0 33.7614 2.23858 36 5 36L31 36C33.7614 36 36 33.7614 36 31L36 5C36 2.23858 33.7614 0 31 0Z" fill="url(#paint0_linear_12658_7906)"/>
<path d="M27.9969 8.46973H15.3612V10.3513H27.9969V8.46973Z" fill="white"/>
<path d="M10.6388 28.4701L10.6388 8.46985H8.00169L8.00169 28.4701H10.6388Z" fill="white"/>
<path d="M27.9999 28.4686L27.9999 16.3768H25.3628L25.3628 28.4686H27.9999Z" fill="white"/>
<path d="M25.3629 28.4523L7.99976 8.46973H10.6369L28 28.4523H25.3629Z" fill="white"/>
<path d="M17.9983 14.817V8.46973H15.3612V11.7801L17.9983 14.817Z" fill="white"/>
<path d="M27.997 11.78H19.6212V13.6616H27.997V11.78Z" fill="white"/>
<path d="M22.2613 19.6561V11.78H19.6212V16.6191L22.2613 19.6561Z" fill="white"/>
</g>
<defs>
<linearGradient id="paint0_linear_12658_7906" x1="-6.04708" y1="-6.04708" x2="49.9094" y2="49.9094" gradientUnits="userSpaceOnUse">
<stop stop-color="#FF0A6C"/>
<stop offset="1" stop-color="#2D27FF"/>
</linearGradient>
<clipPath id="clip0_12658_7906">
<rect width="36" height="36" fill="white"/>
</clipPath>
</defs>
</svg>
