<svg width="17" height="14" viewBox="0 0 17 14" fill="none" xmlns="http://www.w3.org/2000/svg">
<path d="M16.7526 6.76672C14.4521 4.44325 10.5561 3.03329 6.9656 3.23645C5.31909 1.69153 3.08308 0.803853 0.766074 0.803853C0.632074 0.802879 0.508574 0.876446 0.448073 0.992887C0.387573 1.1103 0.400073 1.25013 0.480574 1.35488L2.13158 3.50149L1.62708 3.52926C1.43958 3.53949 1.29358 3.69053 1.29358 3.87371L1.29358 10.1362C1.29358 10.2307 1.33308 10.317 1.39758 10.3798C1.45708 10.4378 1.53758 10.4753 1.62758 10.4802L2.13208 10.5079L0.481075 12.6546C0.400574 12.7593 0.405575 12.8986 0.465075 13.0151C0.480574 13.0448 0.501074 13.0716 0.525574 13.0955C0.596574 13.1647 0.700075 13.2051 0.799576 13.2056C3.08458 13.2056 5.32059 12.3179 6.9671 10.773C10.5631 10.9747 14.4681 9.57544 16.7531 7.24272C16.8826 7.10971 16.8826 6.90021 16.7526 6.76672ZM10.1326 8.72722C9.64561 8.72722 9.2036 8.53429 8.8831 8.22199C8.5626 7.9097 8.3646 7.47901 8.3646 7.00448C8.3651 6.05492 9.1581 5.28222 10.1326 5.28173C11.1076 5.28173 11.9006 6.05443 11.9006 7.00447C11.9006 7.95452 11.1071 8.72771 10.1326 8.72722Z" fill="white"/>
</svg>
