<svg width="72" height="17" viewBox="0 0 72 17" fill="none" xmlns="http://www.w3.org/2000/svg">
<path d="M12.6515 16.3306H9.20401L3.44752 6.70694V16.3306H0V0.650513H3.44752L9.21198 10.3618V0.650513H12.6595V16.3306H12.6515Z" fill="#110C3B"/>
<path d="M25.3271 0.650513V3.66558H19.483V7.10135H23.9975V9.98494H19.483V16.3306H16.0355V0.650513H25.3271Z" fill="#110C3B"/>
<path d="M38.337 0.650513V3.66558H34.4675V16.3306H31.004V3.66558H27.1743V0.650513H38.337Z" fill="#110C3B"/>
<path d="M44.2446 0.650513V16.3306H40.7971V0.650513H44.2446Z" fill="#110C3B"/>
<path d="M56.9121 0.650513V3.66558H51.068V7.10135H55.5824V9.98494H51.068V16.3306H47.6205V0.650513H56.9121Z" fill="#110C3B"/>
<path d="M72 0.650513L67.0636 11.1156V16.3306H63.6001V11.1156L58.6637 0.650513H62.6128L65.3517 7.04L68.0906 0.650513H72Z" fill="#110C3B"/>
</svg>
