<svg width="144" height="150" viewBox="0 0 144 150" fill="none" xmlns="http://www.w3.org/2000/svg">
<path d="M72 143.555C111.642 143.555 143.777 111.419 143.777 71.7773C143.777 32.1358 111.642 0 72 0C32.3585 0 0.222656 32.1358 0.222656 71.7773C0.222656 111.419 32.3585 143.555 72 143.555Z" fill="#FF0A6C"/>
<path d="M72 117.188C102.742 117.188 127.664 92.2659 127.664 61.5234C127.664 30.781 102.742 5.85938 72 5.85938C41.2576 5.85938 16.3359 30.781 16.3359 61.5234C16.3359 92.2659 41.2576 117.188 72 117.188Z" fill="#E80054"/>
<path d="M72 10.7687C64.7188 10.7687 58.8164 16.6711 58.8164 23.9523C58.8164 31.2334 64.7188 37.1359 72 37.1359C79.2812 37.1359 85.1836 31.2334 85.1836 23.9523C85.1836 16.6711 79.2812 10.7687 72 10.7687ZM72 28.3468C69.573 28.3468 67.6055 26.3792 67.6055 23.9523C67.6055 21.5253 69.573 19.5577 72 19.5577C74.427 19.5577 76.3945 21.5253 76.3945 23.9523C76.3945 26.3795 74.427 28.3468 72 28.3468Z" fill="#FFC839"/>
<path d="M67.6055 23.9523C67.6055 21.5253 69.5728 19.5577 71.9997 19.5577C69.5728 19.5577 67.6055 17.5902 67.6055 15.1632C67.6055 12.7363 69.573 10.7687 72 10.7687C64.7188 10.7687 58.8164 16.6711 58.8164 23.9523C58.8164 31.2334 64.7188 37.1359 72 37.1359C69.573 37.1359 67.6055 35.1683 67.6055 32.7413C67.6055 30.3144 69.573 28.3468 72 28.3468C69.573 28.3468 67.6055 26.3795 67.6055 23.9523Z" fill="#FFB332"/>
<path d="M134.347 107.365C134.071 107.074 133.778 106.795 133.47 106.531C124.155 98.5795 117.745 87.7587 115.247 75.769L111.071 55.722C107.215 37.2152 90.9042 23.9522 72.0001 23.9522C53.096 23.9522 36.785 37.2152 32.9295 55.722L28.7529 75.769C26.2551 87.759 19.8452 98.5795 10.5303 106.531C10.2218 106.795 9.92969 107.074 9.65283 107.365H134.347Z" fill="#FFDD40"/>
<path d="M77.8452 107.365V96.8842C42.5038 80.5108 49.7015 34.3289 67.0666 24.2584C50.3164 26.3344 36.4446 38.8474 32.929 55.7221L28.7524 75.7691C26.2546 87.7591 19.8447 98.5796 10.5298 106.531C10.2213 106.795 9.9292 107.074 9.65234 107.365H77.8452Z" fill="#FFC839"/>
<path d="M72.0003 96.8106C31.0907 96.8106 9.65303 107.365 9.65303 107.365C7.58936 109.532 6.42041 112.421 6.42041 115.444V122.66H137.58V115.444C137.58 112.421 136.411 109.532 134.348 107.365C134.347 107.364 112.909 96.8106 72.0003 96.8106Z" fill="#FEE884"/>
<path d="M77.8597 110.13C74.2017 110.13 71.2365 107.165 71.2365 103.507C71.2365 99.854 74.1943 96.8918 77.8456 96.8841C75.9431 96.8364 73.9957 96.8106 72.0003 96.8106C31.0907 96.8106 9.65303 107.365 9.65303 107.365C7.58936 109.532 6.42041 112.421 6.42041 115.444V122.66H77.8597V110.13Z" fill="#FFDD40"/>
<path d="M72.0003 135.28C108.219 135.28 137.58 129.63 137.58 122.66C137.58 115.69 108.219 110.04 72.0003 110.04C35.7815 110.04 6.42041 115.69 6.42041 122.66C6.42041 129.63 35.7815 135.28 72.0003 135.28Z" fill="#FFC839"/>
<path d="M71.9999 130.886C105.326 130.886 132.342 127.203 132.342 122.66C132.342 118.117 105.326 114.434 71.9999 114.434C38.6738 114.434 11.6577 118.117 11.6577 122.66C11.6577 127.203 38.6738 130.886 71.9999 130.886Z" fill="#FFB332"/>
<path d="M11.6577 122.66C11.6577 127.203 38.6738 130.886 71.9999 130.886C79.2125 130.886 86.1286 130.713 92.5402 130.397C91.5931 126.62 89.3416 123.446 87.253 120.703C85.7574 118.738 84.9427 116.507 84.4988 114.611C80.4658 114.496 76.2855 114.434 71.9999 114.434C38.6738 114.435 11.6577 118.117 11.6577 122.66Z" fill="#FF9433"/>
<path d="M77.8594 111.544C75.9311 111.519 73.977 111.505 72 111.505C70.023 111.505 68.0689 111.519 66.1406 111.544V128.549H77.8594V111.544Z" fill="#FFC839"/>
<path d="M72 150C80.0901 150 86.6484 143.442 86.6484 135.352C86.6484 127.261 80.0901 120.703 72 120.703C63.9099 120.703 57.3516 127.261 57.3516 135.352C57.3516 143.442 63.9099 150 72 150Z" fill="#FEE884"/>
<path d="M69.0592 135.352C69.0592 129.343 72.6782 124.182 77.8538 121.923C76.0605 121.14 74.0818 120.703 72 120.703C63.91 120.703 57.3516 127.262 57.3516 135.352C57.3516 143.442 63.91 150 72 150C74.0818 150 76.0605 149.563 77.8538 148.78C72.6779 146.521 69.0592 141.36 69.0592 135.352Z" fill="#FFDD40"/>
</svg>
