<svg width="93" height="14" viewBox="0 0 93 14" fill="none" xmlns="http://www.w3.org/2000/svg">
<path d="M7.57248 7.96248C7.57248 7.51915 7.50831 7.10498 7.37998 6.71998C7.26331 6.32331 7.08248 5.98498 6.83748 5.70498C6.60414 5.41331 6.30664 5.18581 5.94498 5.02248C5.58331 4.84748 5.16914 4.75998 4.70248 4.75998C4.23581 4.75998 3.82164 4.84748 3.45998 5.02248C3.10998 5.19748 2.80664 5.43081 2.54998 5.72248C2.30498 6.01415 2.10664 6.35248 1.95498 6.73748C1.80331 7.12248 1.70414 7.53081 1.65748 7.96248H7.57248ZM1.65748 8.83748C1.65748 9.32748 1.72164 9.79415 1.84998 10.2375C1.97831 10.6691 2.16498 11.0483 2.40998 11.375C2.66664 11.69 2.98748 11.9466 3.37248 12.145C3.75748 12.3316 4.20081 12.425 4.70248 12.425C5.39081 12.425 5.97998 12.2441 6.46998 11.8825C6.95998 11.5208 7.28664 11.0075 7.44998 10.3425H8.62248C8.49414 10.7741 8.32498 11.1766 8.11498 11.55C7.90498 11.9116 7.64248 12.2325 7.32748 12.5125C7.01248 12.7808 6.63914 12.9908 6.20748 13.1425C5.77581 13.2941 5.27414 13.37 4.70248 13.37C3.97914 13.37 3.35498 13.2475 2.82998 13.0025C2.30498 12.7575 1.87331 12.425 1.53498 12.005C1.19664 11.5733 0.945809 11.0716 0.782476 10.5C0.619142 9.91665 0.537476 9.29248 0.537476 8.62748C0.537476 7.96248 0.630809 7.33831 0.817476 6.75498C1.01581 6.17165 1.28998 5.66415 1.63998 5.23248C2.00164 4.78915 2.43914 4.44498 2.95248 4.19998C3.46581 3.94331 4.04914 3.81498 4.70248 3.81498C5.95081 3.81498 6.93081 4.24665 7.64248 5.10998C8.35414 5.96165 8.70414 7.20415 8.69248 8.83748H1.65748Z" fill="black"/>
<path d="M16.8416 13.16C16.7133 13.1833 16.5441 13.2241 16.3341 13.2825C16.1241 13.3408 15.8908 13.37 15.6341 13.37C15.1091 13.37 14.7066 13.2416 14.4266 12.985C14.1583 12.7166 14.0241 12.2441 14.0241 11.5675V4.93498H12.7466V4.05998H14.0241V1.53998H15.0741V4.05998H16.7716V4.93498H15.0741V11.1475C15.0741 11.3691 15.0799 11.5616 15.0916 11.725C15.1033 11.8883 15.1383 12.0225 15.1966 12.1275C15.2549 12.2325 15.3424 12.3083 15.4591 12.355C15.5874 12.4016 15.7624 12.425 15.9841 12.425C16.1241 12.425 16.2641 12.4133 16.4041 12.39C16.5558 12.3666 16.7016 12.3375 16.8416 12.3025V13.16Z" fill="black"/>
<path d="M21.4497 13.125V0.524979H22.4997V5.31998C22.9197 4.87665 23.3514 4.51498 23.7947 4.23498C24.2497 3.95498 24.7922 3.81498 25.4222 3.81498C25.9822 3.81498 26.5014 3.91415 26.9797 4.11248C27.458 4.29915 27.8605 4.63165 28.1872 5.10998C28.4089 5.43665 28.5372 5.77498 28.5722 6.12498C28.6189 6.46331 28.6422 6.81915 28.6422 7.19248V13.125H27.5922V7.20998C27.5922 6.39331 27.4114 5.78081 27.0497 5.37248C26.688 4.96415 26.0872 4.75998 25.2472 4.75998C24.9205 4.75998 24.623 4.81248 24.3547 4.91748C24.0864 5.01081 23.8414 5.13915 23.6197 5.30248C23.4097 5.46581 23.2289 5.65248 23.0772 5.86248C22.9255 6.07248 22.8089 6.29415 22.7272 6.52748C22.6222 6.81915 22.558 7.09914 22.5347 7.36748C22.5114 7.63581 22.4997 7.92748 22.4997 8.24248V13.125H21.4497Z" fill="black"/>
<path d="M40.6588 7.96248C40.6588 7.51915 40.5947 7.10498 40.4663 6.71998C40.3497 6.32331 40.1688 5.98498 39.9238 5.70498C39.6905 5.41331 39.393 5.18581 39.0313 5.02248C38.6697 4.84748 38.2555 4.75998 37.7888 4.75998C37.3222 4.75998 36.908 4.84748 36.5463 5.02248C36.1963 5.19748 35.893 5.43081 35.6363 5.72248C35.3913 6.01415 35.193 6.35248 35.0413 6.73748C34.8897 7.12248 34.7905 7.53081 34.7438 7.96248H40.6588ZM34.7438 8.83748C34.7438 9.32748 34.808 9.79415 34.9363 10.2375C35.0647 10.6691 35.2513 11.0483 35.4963 11.375C35.753 11.69 36.0738 11.9466 36.4588 12.145C36.8438 12.3316 37.2872 12.425 37.7888 12.425C38.4772 12.425 39.0663 12.2441 39.5563 11.8825C40.0463 11.5208 40.373 11.0075 40.5363 10.3425H41.7088C41.5805 10.7741 41.4113 11.1766 41.2013 11.55C40.9913 11.9116 40.7288 12.2325 40.4138 12.5125C40.0988 12.7808 39.7255 12.9908 39.2938 13.1425C38.8622 13.2941 38.3605 13.37 37.7888 13.37C37.0655 13.37 36.4413 13.2475 35.9163 13.0025C35.3913 12.7575 34.9597 12.425 34.6213 12.005C34.283 11.5733 34.0322 11.0716 33.8688 10.5C33.7055 9.91665 33.6238 9.29248 33.6238 8.62748C33.6238 7.96248 33.7172 7.33831 33.9038 6.75498C34.1022 6.17165 34.3763 5.66415 34.7263 5.23248C35.088 4.78915 35.5255 4.44498 36.0388 4.19998C36.5522 3.94331 37.1355 3.81498 37.7888 3.81498C39.0372 3.81498 40.0172 4.24665 40.7288 5.10998C41.4405 5.96165 41.7905 7.20415 41.7788 8.83748H34.7438Z" fill="black"/>
<path d="M47.8454 13.125H46.7954V4.05998H47.8454V5.75748H47.8804C48.1721 5.03415 48.5454 4.53248 49.0004 4.25248C49.4671 3.96081 50.0796 3.81498 50.8379 3.81498V4.95248C50.2429 4.94081 49.7529 5.03415 49.3679 5.23248C48.9829 5.43081 48.6738 5.69915 48.4404 6.03748C48.2188 6.37581 48.0613 6.77831 47.9679 7.24498C47.8863 7.69998 47.8454 8.17831 47.8454 8.67998V13.125Z" fill="black"/>
<path d="M61.748 7.96248C61.748 7.51915 61.6838 7.10498 61.5555 6.71998C61.4388 6.32331 61.258 5.98498 61.013 5.70498C60.7796 5.41331 60.4821 5.18581 60.1205 5.02248C59.7588 4.84748 59.3446 4.75998 58.878 4.75998C58.4113 4.75998 57.9971 4.84748 57.6355 5.02248C57.2855 5.19748 56.9821 5.43081 56.7255 5.72248C56.4805 6.01415 56.2821 6.35248 56.1305 6.73748C55.9788 7.12248 55.8796 7.53081 55.833 7.96248H61.748ZM55.833 8.83748C55.833 9.32748 55.8971 9.79415 56.0255 10.2375C56.1538 10.6691 56.3405 11.0483 56.5855 11.375C56.8421 11.69 57.163 11.9466 57.548 12.145C57.933 12.3316 58.3763 12.425 58.878 12.425C59.5663 12.425 60.1555 12.2441 60.6455 11.8825C61.1355 11.5208 61.4621 11.0075 61.6255 10.3425H62.798C62.6696 10.7741 62.5005 11.1766 62.2905 11.55C62.0805 11.9116 61.818 12.2325 61.503 12.5125C61.188 12.7808 60.8146 12.9908 60.383 13.1425C59.9513 13.2941 59.4496 13.37 58.878 13.37C58.1546 13.37 57.5305 13.2475 57.0055 13.0025C56.4805 12.7575 56.0488 12.425 55.7105 12.005C55.3721 11.5733 55.1213 11.0716 54.958 10.5C54.7946 9.91665 54.713 9.29248 54.713 8.62748C54.713 7.96248 54.8063 7.33831 54.993 6.75498C55.1913 6.17165 55.4655 5.66415 55.8155 5.23248C56.1771 4.78915 56.6146 4.44498 57.128 4.19998C57.6413 3.94331 58.2246 3.81498 58.878 3.81498C60.1263 3.81498 61.1063 4.24665 61.818 5.10998C62.5296 5.96165 62.8796 7.20415 62.868 8.83748H55.833Z" fill="black"/>
<path d="M73.9746 4.05998H75.0246V13.125H73.9746V11.865C73.8346 12.0283 73.6771 12.1975 73.5021 12.3725C73.3271 12.5475 73.1229 12.7108 72.8896 12.8625C72.6679 13.0025 72.4054 13.1191 72.1021 13.2125C71.7988 13.3175 71.4488 13.37 71.0521 13.37C70.4454 13.37 69.9379 13.2883 69.5296 13.125C69.1213 12.95 68.7888 12.7108 68.5321 12.4075C68.2871 12.1041 68.1063 11.7541 67.9896 11.3575C67.8846 10.9491 67.8321 10.5058 67.8321 10.0275V4.05998H68.8821V10.01C68.8821 10.7916 69.0629 11.3925 69.4246 11.8125C69.7863 12.2208 70.3813 12.425 71.2096 12.425C71.6413 12.425 72.0263 12.3433 72.3646 12.18C72.7146 12.005 73.0063 11.7658 73.2396 11.4625C73.4729 11.1591 73.6538 10.7975 73.7821 10.3775C73.9104 9.95748 73.9746 9.49664 73.9746 8.99498V4.05998Z" fill="black"/>
<path d="M81.3887 13.125H80.3387V4.05998H81.3887V5.42498H81.4237C81.692 4.89998 82.077 4.50331 82.5787 4.23498C83.0804 3.95498 83.6287 3.81498 84.2237 3.81498C84.6437 3.81498 84.9995 3.86164 85.2912 3.95498C85.5829 4.04831 85.8279 4.17665 86.0262 4.33998C86.2362 4.49165 86.4054 4.67248 86.5337 4.88248C86.6737 5.09248 86.7904 5.31998 86.8837 5.56498C87.187 4.96998 87.5895 4.53248 88.0912 4.25248C88.6045 3.96081 89.1879 3.81498 89.8412 3.81498C90.4595 3.81498 90.9495 3.91998 91.3112 4.12998C91.6845 4.32831 91.9704 4.59665 92.1687 4.93498C92.3671 5.26165 92.4954 5.64081 92.5537 6.07248C92.6237 6.50415 92.6587 6.94748 92.6587 7.40248V13.125H91.6087V6.85998C91.6087 6.20665 91.4687 5.69331 91.1887 5.31998C90.9204 4.94665 90.4129 4.75998 89.6662 4.75998C89.2812 4.75998 88.9079 4.84748 88.5462 5.02248C88.1962 5.18581 87.887 5.44248 87.6187 5.79248C87.502 5.94415 87.4029 6.12498 87.3212 6.33498C87.2512 6.53331 87.1929 6.74331 87.1462 6.96498C87.0995 7.18665 87.0646 7.40831 87.0412 7.62998C87.0295 7.85164 87.0237 8.05581 87.0237 8.24248V13.125H85.9737V6.85998C85.9737 6.20665 85.8337 5.69331 85.5537 5.31998C85.2854 4.94665 84.7779 4.75998 84.0312 4.75998C83.6462 4.75998 83.2729 4.84748 82.9112 5.02248C82.5612 5.18581 82.2521 5.44248 81.9837 5.79248C81.8671 5.94415 81.7679 6.12498 81.6862 6.33498C81.6162 6.53331 81.5579 6.74331 81.5112 6.96498C81.4646 7.18665 81.4296 7.40831 81.4062 7.62998C81.3945 7.85164 81.3887 8.05581 81.3887 8.24248V13.125Z" fill="black"/>
</svg>
